<?xml version="1.0" standalone="no"?>
<!DOCTYPE svg PUBLIC "-//W3C//DTD SVG 20010904//EN"
 "http://www.w3.org/TR/2001/REC-SVG-20010904/DTD/svg10.dtd">
<svg version="1.0" xmlns="http://www.w3.org/2000/svg"
 width="225.000000pt" height="225.000000pt" viewBox="0 0 225.000000 225.000000"
 preserveAspectRatio="xMidYMid meet">

<g transform="translate(0.000000,225.000000) scale(0.100000,-0.100000)"
fill="#000000" stroke="none">
<path d="M1011 2240 c-121 -26 -216 -107 -246 -210 -34 -121 -22 -303 30 -427
15 -34 17 -36 27 -19 6 10 16 97 22 193 14 215 11 210 140 172 101 -31 187
-29 261 5 l58 26 29 -27 c46 -44 76 -118 83 -208 7 -86 22 -148 34 -140 4 2
19 39 32 82 19 63 24 100 24 193 l0 115 -50 95 c-57 108 -87 134 -167 143
-110 13 -234 16 -277 7z"/>
<path d="M830 1151 c-124 -79 -199 -238 -223 -470 -1 -19 -12 -28 -50 -40 -93
-31 -156 -109 -157 -191 0 -41 44 -292 54 -308 4 -7 14 -12 22 -12 8 0 26 -7
39 -16 30 -20 45 -11 45 26 0 38 -15 46 -47 25 -14 -9 -29 -13 -34 -8 -12 12
-49 228 -49 285 0 55 15 91 57 130 36 35 73 48 131 48 89 0 170 -69 179 -154
6 -46 -32 -294 -47 -309 -4 -5 -19 -1 -33 8 -32 21 -47 13 -47 -25 0 -40 11
-43 64 -17 51 25 49 20 81 219 15 93 16 114 4 155 -17 63 -79 125 -142 143
l-48 13 7 56 c21 176 71 288 171 388 92 92 96 100 23 54z"/>
<path d="M1377 1167 c4 -8 34 -38 66 -67 71 -65 104 -127 128 -243 26 -130 47
-409 30 -415 -7 -2 -24 -14 -39 -27 -38 -33 -38 -97 1 -131 37 -32 87 -32 124
0 39 34 39 98 1 131 -15 13 -32 25 -38 27 -7 2 -15 54 -20 138 -22 320 -60
447 -165 538 -44 40 -101 71 -88 49z m285 -784 c22 -20 23 -41 1 -65 -20 -22
-51 -23 -75 -1 -22 20 -23 41 -1 65 20 22 51 23 75 1z"/>
</g>
</svg>
